<svg width="1256" height="711" viewBox="0 0 1256 711" fill="none" xmlns="http://www.w3.org/2000/svg">
    <g style="mix-blend-mode:soft-light">
        <path
            d="M351.841 701.644L1281.33 281.341L656.094 1127.82L351.841 701.644ZM-401.474 -351.819L350.32 701.234L121.492 804.707L-401.474 -351.819Z"
            stroke="url(#paint0_linear_302_2145)" />
        <path
            d="M375.111 709.961L1284.44 247.65L698.508 1121.79L375.111 709.961ZM-425.526 -308.002L373.573 709.621L149.708 823.436L-425.526 -308.002Z"
            stroke="url(#paint1_linear_302_2145)" />
        <path
            d="M398.374 717.104L1285.99 214.367L739.965 1113.98L398.374 717.104ZM-447.232 -263.823L396.822 716.834L178.303 840.601L-447.232 -263.823Z"
            stroke="url(#paint2_linear_302_2145)" />
        <path
            d="M422.08 723.227L1286.04 180.843L781.278 1104.24L422.08 723.227ZM-467.044 -218.434L420.517 723.028L207.822 856.555L-467.044 -218.434Z"
            stroke="url(#paint3_linear_302_2145)" />
        <path
            d="M444.054 727.898L1284.75 150.112L818.762 1093.67L444.054 727.898ZM-483.399 -176.036L442.485 727.764L235.516 870.007L-483.399 -176.036Z"
            stroke="url(#paint4_linear_302_2145)" />
        <path
            d="M465.104 731.489L1282.34 120.973L853.955 1082.18L465.104 731.489ZM-497.302 -135.138L463.53 731.416L262.337 881.717L-497.302 -135.138Z"
            stroke="url(#paint5_linear_302_2145)" />
        <path
            d="M485.1 734.113L1279.02 93.5632L886.751 1070.07L485.1 734.113ZM-508.937 -96.043L483.525 734.099L288.073 891.794L-508.937 -96.043Z"
            stroke="url(#paint6_linear_302_2145)" />
        <path
            d="M509.265 736.282L1273.66 60.7764L925.577 1053.89L509.265 736.282ZM-520.997 -48.4645L507.691 736.339L319.507 902.64L-520.997 -48.4645Z"
            stroke="url(#paint7_linear_302_2145)" />
        <path
            d="M534.519 737.385L1266.52 26.9094L965.214 1035.2L534.519 737.385ZM-531.276 1.62234L532.949 737.515L352.739 912.425L-531.276 1.62234Z"
            stroke="url(#paint8_linear_302_2145)" />
        <path
            d="M557.682 737.359L1258.6 -3.79949L1000.73 1016.47L557.682 737.359ZM-538.632 47.8929L556.119 737.557L383.562 920.02L-538.632 47.8929Z"
            stroke="url(#paint9_linear_302_2145)" />
        <path
            d="M580.312 736.375L1249.59 -33.476L1034.66 996.692L580.312 736.375ZM-543.904 93.4078L578.758 736.638L413.99 926.165L-543.904 93.4078Z"
            stroke="url(#paint10_linear_302_2145)" />
        <path
            d="M605.528 734.156L1238.06 -66.1602L1071.55 972.934L605.528 734.156ZM-547.533 144.482L603.989 734.491L448.267 931.519L-547.533 144.482Z"
            stroke="url(#paint11_linear_302_2145)" />
        <path
            d="M627.018 731.32L1226.98 -93.694L1102.23 951.237L627.018 731.32ZM-548.741 188.311L625.493 731.716L477.79 934.824L-548.741 188.311Z"
            stroke="url(#paint12_linear_302_2145)" />
        <path
            d="M648.296 727.642L1214.86 -120.658L1131.91 928.419L648.296 727.642ZM-548.197 231.986L646.788 728.098L507.307 936.939L-548.197 231.986Z"
            stroke="url(#paint13_linear_302_2145)" />
        <path
            d="M670.259 722.916L1201.11 -148.175L1161.79 903.441L670.259 722.916ZM-545.781 277.366L668.771 723.435L538.082 937.887L-545.781 277.366Z"
            stroke="url(#paint14_linear_302_2145)" />
        <path
            d="M692.509 717.141L1185.88 -175.717L1191.27 876.621L692.509 717.141ZM-541.362 323.654L691.045 717.722L569.584 937.532L-541.362 323.654Z"
            stroke="url(#paint15_linear_302_2145)" />
        <path
            d="M720.226 708.504L1164.99 -209.535L1226.82 840.998L720.226 708.504ZM-532.977 381.778L718.796 709.164L609.302 935.173L-532.977 381.778Z"
            stroke="url(#paint16_linear_302_2145)" />
        <path
            d="M746.164 698.906L1143.43 -240.663L1258.87 805.337L746.164 698.906ZM-522.099 436.651L744.769 699.637L646.968 930.947L-522.099 436.651Z"
            stroke="url(#paint17_linear_302_2145)" />
        <path
            d="M770.281 688.59L1121.53 -269.132L1287.54 770.043L770.281 688.59ZM-509.204 488.121L768.923 689.388L682.449 925.167L-509.204 488.121Z"
            stroke="url(#paint18_linear_302_2145)" />
        <path
            d="M792.588 677.775L1099.59 -295.032L1313.04 735.446L792.588 677.775ZM-494.737 536.131L791.268 678.635L715.687 918.127L-494.737 536.131Z"
            stroke="url(#paint19_linear_302_2145)" />
        <path
            d="M813.557 666.419L1077.39 -318.974L1336.04 701.097L813.557 666.419ZM-478.759 581.648L812.276 667.336L747.324 909.927L-478.759 581.648Z"
            stroke="url(#paint20_linear_302_2145)" />
        <path
            d="M834.955 653.549L1053.04 -342.968L1358.48 664.08L834.955 653.549ZM-459.897 628.502L833.718 654.524L780.029 899.854L-459.897 628.502Z"
            stroke="url(#paint21_linear_302_2145)" />
        <path
            d="M854.219 640.764L1029.52 -364.162L1377.72 628.916L854.219 640.764ZM-440.52 671.067L853.025 641.791L809.867 889.191L-440.52 671.067Z"
            stroke="url(#paint22_linear_302_2145)" />
        <path
            d="M873.915 626.407L1003.77 -385.395L1396.35 590.99L873.915 626.407ZM-418.145 715.001L872.769 627.487L840.799 876.579L-418.145 715.001Z"
            stroke="url(#paint23_linear_302_2145)" />
        <path
            d="M892.208 611.796L978.168 -404.677L1412.62 553.808L892.208 611.796ZM-394.809 756.211L891.109 612.925L869.947 863.167L-394.809 756.211Z"
            stroke="url(#paint24_linear_302_2145)" />
        <path
            d="M907.278 598.735L955.716 -420.216L1425.2 521.606L907.278 598.735ZM-373.542 790.486L906.221 599.903L894.297 850.756L-373.542 790.486Z"
            stroke="url(#paint25_linear_302_2145)" />
        <path
            d="M922.482 584.522L931.69 -435.538L1437.06 487.527L922.482 584.522ZM-350.013 825.399L921.472 585.73L919.205 836.855L-350.013 825.399Z"
            stroke="url(#paint26_linear_302_2145)" />
        <path
            d="M942.019 564.534L898.53 -454.64L1450.9 441.092L942.019 564.534ZM-316.337 870.812L941.072 565.793L951.779 816.7L-316.337 870.812Z"
            stroke="url(#paint27_linear_302_2145)" />
        <path
            d="M956.397 548.408L872.249 -468.217L1459.94 404.746L956.397 548.408ZM-288.728 904.685L955.5 549.703L976.217 799.983L-288.728 904.685Z"
            stroke="url(#paint28_linear_302_2145)" />
        <path
            d="M969.654 532.31L846.387 -480.316L1467.28 369.349L969.654 532.31ZM-260.815 936.31L968.808 533.639L999.154 782.935L-260.815 936.31Z"
            stroke="url(#paint29_linear_302_2145)" />
        <path
            d="M984.611 512.5L815.021 -493.406L1474.24 326.882L984.611 512.5ZM-226.029 972.521L983.827 513.867L1025.58 761.508L-226.029 972.521Z"
            stroke="url(#paint30_linear_302_2145)" />
        <path
            d="M997.997 493.012L784.618 -504.523L1479.05 286.177L997.997 493.012ZM-191.386 1005.49L997.274 494.411L1049.81 739.992L-191.386 1005.49Z"
            stroke="url(#paint31_linear_302_2145)" />
        <path
            d="M1008.26 476.719L759.513 -512.588L1481.65 252.893L1008.26 476.719ZM-162.124 1031.21L1007.59 478.144L1068.83 721.698L-162.124 1031.21Z"
            stroke="url(#paint32_linear_302_2145)" />
        <path
            d="M1017.4 461.049L735.625 -519.365L1483.01 221.481L1017.4 461.049ZM-133.748 1054.46L1016.77 462.495L1086.14 703.86L-133.748 1054.46Z"
            stroke="url(#paint33_linear_302_2145)" />
        <path
            d="M1026.51 444.093L710.036 -525.675L1483.31 188.111L1026.51 444.093ZM-102.795 1078.08L1025.94 445.561L1103.85 684.305L-102.795 1078.08Z"
            stroke="url(#paint34_linear_302_2145)" />
        <path
            d="M1034.87 427.13L684.691 -530.984L1482.44 155.338L1034.87 427.13ZM-71.5871 1100.2L1034.35 428.617L1120.55 664.492L-71.5871 1100.2Z"
            stroke="url(#paint35_linear_302_2145)" />
        <path
            d="M1043.15 408.681L657.409 -535.678L1480.25 120.353L1043.15 408.681ZM-37.3835 1122.63L1042.68 410.186L1137.64 642.675L-37.3835 1122.63Z"
            stroke="url(#paint36_linear_302_2145)" />
        <path
            d="M1049.56 392.962L634.376 -538.828L1477.4 91.0596L1049.56 392.962ZM-8.0376 1140.47L1049.14 394.48L1151.35 623.875L-8.0376 1140.47Z"
            stroke="url(#paint37_linear_302_2145)" />
        <path
            d="M1056.22 374.932L608.199 -541.521L1473.06 58.0224L1056.22 374.932ZM25.8441 1159.53L1055.85 376.465L1166.15 602.084L25.8441 1159.53Z"
            stroke="url(#paint38_linear_302_2145)" />
        <path
            d="M1062.11 357.085L582.524 -543.253L1467.69 25.8867L1062.11 357.085ZM59.6092 1177L1061.8 358.629L1179.86 580.281L59.6092 1177Z"
            stroke="url(#paint39_linear_302_2145)" />
        <path
            d="M1068.07 336.479L553.17 -544.14L1460.2 -10.5369L1068.07 336.479ZM98.8601 1195.49L1067.82 338.035L1194.58 554.831L98.8601 1195.49Z"
            stroke="url(#paint40_linear_302_2145)" />
        <path
            d="M1072.85 317.197L525.969 -543.922L1451.98 -43.9834L1072.85 317.197ZM135.841 1211.22L1072.66 318.761L1207.3 530.757L135.841 1211.22Z"
            stroke="url(#paint41_linear_302_2145)" />
        <path
            d="M1077.53 294.56L494.356 -542.411L1440.88 -82.4868L1077.53 294.56ZM179.562 1227.8L1077.4 296.131L1220.97 502.182L179.562 1227.8Z"
            stroke="url(#paint42_linear_302_2145)" />
        <path
            d="M1080.99 273.407L465.123 -539.804L1429.13 -117.738L1080.99 273.407ZM220.703 1241.48L1080.93 274.981L1232.55 475.184L220.703 1241.48Z"
            stroke="url(#paint43_linear_302_2145)" />
        <path
            d="M1084.11 247.114L429.194 -534.99L1412.69 -160.596L1084.11 247.114ZM272.222 1256.12L1084.13 248.69L1245.36 441.234L272.222 1256.12Z"
            stroke="url(#paint44_linear_302_2145)" />
    </g>
    <defs>
        <linearGradient id="paint0_linear_302_2145" x1="1126.32" y1="-66.1169" x2="-35.31"
            y2="459.157" gradientUnits="userSpaceOnUse">
            <stop stop-color="white" />
            <stop offset="1" stop-color="white" stop-opacity="0" />
        </linearGradient>
        <linearGradient id="paint1_linear_302_2145" x1="1113.72" y1="-92.3669" x2="-22.71"
            y2="485.407" gradientUnits="userSpaceOnUse">
            <stop stop-color="white" />
            <stop offset="1" stop-color="white" stop-opacity="0" />
        </linearGradient>
        <linearGradient id="paint2_linear_302_2145" x1="1100.16" y1="-117.628" x2="-9.14298"
            y2="510.668" gradientUnits="userSpaceOnUse">
            <stop stop-color="white" />
            <stop offset="1" stop-color="white" stop-opacity="0" />
        </linearGradient>
        <linearGradient id="paint3_linear_302_2145" x1="1085.37" y1="-142.404" x2="5.63962"
            y2="535.442" gradientUnits="userSpaceOnUse">
            <stop stop-color="white" />
            <stop offset="1" stop-color="white" stop-opacity="0" />
        </linearGradient>
        <linearGradient id="paint4_linear_302_2145" x1="1070.84" y1="-164.525" x2="20.1768"
            y2="557.564" gradientUnits="userSpaceOnUse">
            <stop stop-color="white" />
            <stop offset="1" stop-color="white" stop-opacity="0" />
        </linearGradient>
        <linearGradient id="paint5_linear_302_2145" x1="1056.18" y1="-184.976" x2="34.8338"
            y2="578.016" gradientUnits="userSpaceOnUse">
            <stop stop-color="white" />
            <stop offset="1" stop-color="white" stop-opacity="0" />
        </linearGradient>
        <linearGradient id="paint6_linear_302_2145" x1="1041.61" y1="-203.744" x2="49.409"
            y2="596.783" gradientUnits="userSpaceOnUse">
            <stop stop-color="white" />
            <stop offset="1" stop-color="white" stop-opacity="0" />
        </linearGradient>
        <linearGradient id="paint7_linear_302_2145" x1="1023.16" y1="-225.586" x2="67.8545"
            y2="618.628" gradientUnits="userSpaceOnUse">
            <stop stop-color="white" />
            <stop offset="1" stop-color="white" stop-opacity="0" />
        </linearGradient>
        <linearGradient id="paint8_linear_302_2145" x1="1002.92" y1="-247.439" x2="88.0943"
            y2="640.479" gradientUnits="userSpaceOnUse">
            <stop stop-color="white" />
            <stop offset="1" stop-color="white" stop-opacity="0" />
        </linearGradient>
        <linearGradient id="paint9_linear_302_2145" x1="983.495" y1="-266.612" x2="107.518"
            y2="659.652" gradientUnits="userSpaceOnUse">
            <stop stop-color="white" />
            <stop offset="1" stop-color="white" stop-opacity="0" />
        </linearGradient>
        <linearGradient id="paint10_linear_302_2145" x1="963.723" y1="-284.542" x2="127.289"
            y2="677.581" gradientUnits="userSpaceOnUse">
            <stop stop-color="white" />
            <stop offset="1" stop-color="white" stop-opacity="0" />
        </linearGradient>
        <linearGradient id="paint11_linear_302_2145" x1="940.763" y1="-303.579" x2="150.252"
            y2="696.618" gradientUnits="userSpaceOnUse">
            <stop stop-color="white" />
            <stop offset="1" stop-color="white" stop-opacity="0" />
        </linearGradient>
        <linearGradient id="paint12_linear_302_2145" x1="920.411" y1="-319.012" x2="170.603"
            y2="712.05" gradientUnits="userSpaceOnUse">
            <stop stop-color="white" />
            <stop offset="1" stop-color="white" stop-opacity="0" />
        </linearGradient>
        <linearGradient id="paint13_linear_302_2145" x1="899.539" y1="-333.562" x2="191.475"
            y2="726.601" gradientUnits="userSpaceOnUse">
            <stop stop-color="white" />
            <stop offset="1" stop-color="white" stop-opacity="0" />
        </linearGradient>
        <linearGradient id="paint14_linear_302_2145" x1="877.225" y1="-347.804" x2="213.789"
            y2="740.844" gradientUnits="userSpaceOnUse">
            <stop stop-color="white" />
            <stop offset="1" stop-color="white" stop-opacity="0" />
        </linearGradient>
        <linearGradient id="paint15_linear_302_2145" x1="853.801" y1="-361.405" x2="237.213"
            y2="754.444" gradientUnits="userSpaceOnUse">
            <stop stop-color="white" />
            <stop offset="1" stop-color="white" stop-opacity="0" />
        </linearGradient>
        <linearGradient id="paint16_linear_302_2145" x1="823.425" y1="-377.141" x2="267.587"
            y2="770.18" gradientUnits="userSpaceOnUse">
            <stop stop-color="white" />
            <stop offset="1" stop-color="white" stop-opacity="0" />
        </linearGradient>
        <linearGradient id="paint17_linear_302_2145" x1="793.746" y1="-390.595" x2="297.268"
            y2="783.632" gradientUnits="userSpaceOnUse">
            <stop stop-color="white" />
            <stop offset="1" stop-color="white" stop-opacity="0" />
        </linearGradient>
        <linearGradient id="paint18_linear_302_2145" x1="764.995" y1="-401.937" x2="326.02"
            y2="794.977" gradientUnits="userSpaceOnUse">
            <stop stop-color="white" />
            <stop offset="1" stop-color="white" stop-opacity="0" />
        </linearGradient>
        <linearGradient id="paint19_linear_302_2145" x1="737.349" y1="-411.364" x2="353.667"
            y2="804.402" gradientUnits="userSpaceOnUse">
            <stop stop-color="white" />
            <stop offset="1" stop-color="white" stop-opacity="0" />
        </linearGradient>
        <linearGradient id="paint20_linear_302_2145" x1="710.371" y1="-419.228" x2="380.644"
            y2="812.267" gradientUnits="userSpaceOnUse">
            <stop stop-color="white" />
            <stop offset="1" stop-color="white" stop-opacity="0" />
        </linearGradient>
        <linearGradient id="paint21_linear_302_2145" x1="681.782" y1="-426.18" x2="409.232"
            y2="819.219" gradientUnits="userSpaceOnUse">
            <stop stop-color="white" />
            <stop offset="1" stop-color="white" stop-opacity="0" />
        </linearGradient>
        <linearGradient id="paint22_linear_302_2145" x1="655.051" y1="-431.434" x2="435.965"
            y2="824.473" gradientUnits="userSpaceOnUse">
            <stop stop-color="white" />
            <stop offset="1" stop-color="white" stop-opacity="0" />
        </linearGradient>
        <linearGradient id="paint23_linear_302_2145" x1="626.652" y1="-435.731" x2="464.36"
            y2="828.77" gradientUnits="userSpaceOnUse">
            <stop stop-color="white" />
            <stop offset="1" stop-color="white" stop-opacity="0" />
        </linearGradient>
        <linearGradient id="paint24_linear_302_2145" x1="599.221" y1="-438.649" x2="491.792"
            y2="831.69" gradientUnits="userSpaceOnUse">
            <stop stop-color="white" />
            <stop offset="1" stop-color="white" stop-opacity="0" />
        </linearGradient>
        <linearGradient id="paint25_linear_302_2145" x1="575.775" y1="-440.198" x2="515.239"
            y2="833.237" gradientUnits="userSpaceOnUse">
            <stop stop-color="white" />
            <stop offset="1" stop-color="white" stop-opacity="0" />
        </linearGradient>
        <linearGradient id="paint26_linear_302_2145" x1="551.26" y1="-440.89" x2="539.754"
            y2="833.93" gradientUnits="userSpaceOnUse">
            <stop stop-color="white" />
            <stop offset="1" stop-color="white" stop-opacity="0" />
        </linearGradient>
        <linearGradient id="paint27_linear_302_2145" x1="518.332" y1="-440.337" x2="572.683"
            y2="833.377" gradientUnits="userSpaceOnUse">
            <stop stop-color="white" />
            <stop offset="1" stop-color="white" stop-opacity="0" />
        </linearGradient>
        <linearGradient id="paint28_linear_302_2145" x1="492.925" y1="-438.745" x2="598.089"
            y2="831.783" gradientUnits="userSpaceOnUse">
            <stop stop-color="white" />
            <stop offset="1" stop-color="white" stop-opacity="0" />
        </linearGradient>
        <linearGradient id="paint29_linear_302_2145" x1="468.481" y1="-436.247" x2="622.533"
            y2="829.284" gradientUnits="userSpaceOnUse">
            <stop stop-color="white" />
            <stop offset="1" stop-color="white" stop-opacity="0" />
        </linearGradient>
        <linearGradient id="paint30_linear_302_2145" x1="439.535" y1="-432.046" x2="651.479"
            y2="825.085" gradientUnits="userSpaceOnUse">
            <stop stop-color="white" />
            <stop offset="1" stop-color="white" stop-opacity="0" />
        </linearGradient>
        <linearGradient id="paint31_linear_302_2145" x1="412.171" y1="-426.816" x2="678.842"
            y2="819.854" gradientUnits="userSpaceOnUse">
            <stop stop-color="white" />
            <stop offset="1" stop-color="white" stop-opacity="0" />
        </linearGradient>
        <linearGradient id="paint32_linear_302_2145" x1="390.068" y1="-421.673" x2="700.945"
            y2="814.715" gradientUnits="userSpaceOnUse">
            <stop stop-color="white" />
            <stop offset="1" stop-color="white" stop-opacity="0" />
        </linearGradient>
        <linearGradient id="paint33_linear_302_2145" x1="369.435" y1="-416.117" x2="721.579"
            y2="809.156" gradientUnits="userSpaceOnUse">
            <stop stop-color="white" />
            <stop offset="1" stop-color="white" stop-opacity="0" />
        </linearGradient>
        <linearGradient id="paint34_linear_302_2145" x1="347.751" y1="-409.465" x2="743.264"
            y2="802.504" gradientUnits="userSpaceOnUse">
            <stop stop-color="white" />
            <stop offset="1" stop-color="white" stop-opacity="0" />
        </linearGradient>
        <linearGradient id="paint35_linear_302_2145" x1="326.689" y1="-402.182" x2="764.323"
            y2="795.222" gradientUnits="userSpaceOnUse">
            <stop stop-color="white" />
            <stop offset="1" stop-color="white" stop-opacity="0" />
        </linearGradient>
        <linearGradient id="paint36_linear_302_2145" x1="304.471" y1="-393.587" x2="786.545"
            y2="786.626" gradientUnits="userSpaceOnUse">
            <stop stop-color="white" />
            <stop offset="1" stop-color="white" stop-opacity="0" />
        </linearGradient>
        <linearGradient id="paint37_linear_302_2145" x1="286.071" y1="-385.733" x2="804.942"
            y2="778.772" gradientUnits="userSpaceOnUse">
            <stop stop-color="white" />
            <stop offset="1" stop-color="white" stop-opacity="0" />
        </linearGradient>
        <linearGradient id="paint38_linear_302_2145" x1="265.551" y1="-376.15" x2="825.462"
            y2="769.189" gradientUnits="userSpaceOnUse">
            <stop stop-color="white" />
            <stop offset="1" stop-color="white" stop-opacity="0" />
        </linearGradient>
        <linearGradient id="paint39_linear_302_2145" x1="245.828" y1="-366.079" x2="845.186"
            y2="759.119" gradientUnits="userSpaceOnUse">
            <stop stop-color="white" />
            <stop offset="1" stop-color="white" stop-opacity="0" />
        </linearGradient>
        <linearGradient id="paint40_linear_302_2145" x1="223.762" y1="-353.758" x2="867.253"
            y2="746.796" gradientUnits="userSpaceOnUse">
            <stop stop-color="white" />
            <stop offset="1" stop-color="white" stop-opacity="0" />
        </linearGradient>
        <linearGradient id="paint41_linear_302_2145" x1="203.773" y1="-341.573" x2="887.241"
            y2="734.611" gradientUnits="userSpaceOnUse">
            <stop stop-color="white" />
            <stop offset="1" stop-color="white" stop-opacity="0" />
        </linearGradient>
        <linearGradient id="paint42_linear_302_2145" x1="181.098" y1="-326.483" x2="909.915"
            y2="719.522" gradientUnits="userSpaceOnUse">
            <stop stop-color="white" />
            <stop offset="1" stop-color="white" stop-opacity="0" />
        </linearGradient>
        <linearGradient id="paint43_linear_302_2145" x1="160.666" y1="-311.636" x2="930.348"
            y2="704.676" gradientUnits="userSpaceOnUse">
            <stop stop-color="white" />
            <stop offset="1" stop-color="white" stop-opacity="0" />
        </linearGradient>
        <linearGradient id="paint44_linear_302_2145" x1="136.265" y1="-292.198" x2="954.751"
            y2="685.237" gradientUnits="userSpaceOnUse">
            <stop stop-color="white" />
            <stop offset="1" stop-color="white" stop-opacity="0" />
        </linearGradient>
    </defs>
</svg>